<svg width="32" height="32" viewBox="0 0 32 32" fill="none" xmlns="http://www.w3.org/2000/svg">
  <!-- Background with gradient -->
  <defs>
    <linearGradient id="bgGradient" x1="0%" y1="0%" x2="100%" y2="100%">
      <stop offset="0%" style="stop-color:#06b6d4;stop-opacity:1" />
      <stop offset="100%" style="stop-color:#8b5cf6;stop-opacity:1" />
    </linearGradient>
    <linearGradient id="iconGradient" x1="0%" y1="0%" x2="100%" y2="100%">
      <stop offset="0%" style="stop-color:#ffffff;stop-opacity:1" />
      <stop offset="100%" style="stop-color:#e0e7ff;stop-opacity:1" />
    </linearGradient>
  </defs>
  
  <!-- Rounded background -->
  <rect width="32" height="32" rx="8" fill="url(#bgGradient)"/>
  
  <!-- Terminal/Code icon representing DevOps and development -->
  <g transform="translate(6, 6)">
    <!-- Terminal window -->
    <rect x="0" y="0" width="20" height="14" rx="2" fill="none" stroke="url(#iconGradient)" stroke-width="1.5"/>
    
    <!-- Terminal header dots -->
    <circle cx="3" cy="3" r="1" fill="url(#iconGradient)"/>
    <circle cx="6" cy="3" r="1" fill="url(#iconGradient)"/>
    <circle cx="9" cy="3" r="1" fill="url(#iconGradient)"/>
    
    <!-- Code lines -->
    <rect x="2" y="6" width="8" height="1" rx="0.5" fill="url(#iconGradient)"/>
    <rect x="2" y="8" width="12" height="1" rx="0.5" fill="url(#iconGradient)"/>
    <rect x="2" y="10" width="6" height="1" rx="0.5" fill="url(#iconGradient)"/>
    
    <!-- Cursor -->
    <rect x="8" y="10" width="1" height="1" fill="url(#iconGradient)"/>
  </g>
  
  <!-- Small gear icon in corner representing DevOps -->
  <g transform="translate(20, 4)">
    <circle cx="6" cy="6" r="4" fill="none" stroke="url(#iconGradient)" stroke-width="1" opacity="0.7"/>
    <circle cx="6" cy="6" r="1.5" fill="url(#iconGradient)" opacity="0.7"/>
    <rect x="5.5" y="1" width="1" height="2" fill="url(#iconGradient)" opacity="0.7"/>
    <rect x="5.5" y="9" width="1" height="2" fill="url(#iconGradient)" opacity="0.7"/>
    <rect x="1" y="5.5" width="2" height="1" fill="url(#iconGradient)" opacity="0.7"/>
    <rect x="9" y="5.5" width="2" height="1" fill="url(#iconGradient)" opacity="0.7"/>
  </g>
</svg>